<svg width="20" height="20" viewBox="0 0 20 20" fill="none" xmlns="http://www.w3.org/2000/svg">
<path fill-rule="evenodd" clip-rule="evenodd" d="M12.6429 2.643C13.2681 2.01788 14.1159 1.66669 15 1.66669C15.884 1.66669 16.7319 2.01788 17.357 2.643C17.9821 3.26812 18.3333 4.11597 18.3333 5.00002C18.3333 5.88407 17.9821 6.73192 17.357 7.35704C16.7319 7.98216 15.884 8.33335 15 8.33335C14.1159 8.33335 13.2681 7.98216 12.6429 7.35704C12.5816 7.29566 12.5228 7.23213 12.4668 7.16663L8.26547 9.33095C8.31025 9.54951 8.33329 9.77358 8.33329 10C8.33329 10.2265 8.31025 10.4505 8.26547 10.6691L12.4668 12.8334C12.5228 12.7679 12.5816 12.7044 12.6429 12.643C13.2681 12.0179 14.1159 11.6667 15 11.6667C15.884 11.6667 16.7319 12.0179 17.357 12.643C17.9821 13.2681 18.3333 14.116 18.3333 15C18.3333 15.8841 17.9821 16.7319 17.357 17.357C16.7319 17.9822 15.884 18.3334 15 18.3334C14.1159 18.3334 13.2681 17.9822 12.6429 17.357C12.0178 16.7319 11.6666 15.8841 11.6666 15C11.6666 14.7736 11.6897 14.5495 11.7345 14.3309L7.53314 12.1666C7.47711 12.2321 7.41837 12.2957 7.35698 12.357C6.73186 12.9822 5.88401 13.3334 4.99996 13.3334C4.1159 13.3334 3.26806 12.9822 2.64294 12.357C2.01782 11.7319 1.66663 10.8841 1.66663 10C1.66663 9.11597 2.01782 8.26812 2.64294 7.643C3.26806 7.01788 4.1159 6.66669 4.99996 6.66669C5.88401 6.66669 6.73186 7.01788 7.35698 7.643C7.41836 7.70438 7.4771 7.7679 7.53312 7.8334L11.7344 5.66908C11.6897 5.45053 11.6666 5.22646 11.6666 5.00002C11.6666 4.11597 12.0178 3.26812 12.6429 2.643ZM13.5236 5.77333C13.5138 5.7492 13.5029 5.7253 13.4908 5.70171C13.4857 5.69178 13.4804 5.68199 13.4749 5.67235C13.3824 5.4625 13.3333 5.23379 13.3333 5.00002C13.3333 4.55799 13.5089 4.13407 13.8214 3.82151C14.134 3.50895 14.5579 3.33335 15 3.33335C15.442 3.33335 15.8659 3.50895 16.1785 3.82151C16.491 4.13407 16.6666 4.55799 16.6666 5.00002C16.6666 5.44205 16.491 5.86597 16.1785 6.17853C15.8659 6.49109 15.442 6.66669 15 6.66669C14.5579 6.66669 14.134 6.49109 13.8214 6.17853C13.7011 6.0582 13.6011 5.92136 13.5236 5.77333ZM6.47649 9.22694C6.39894 9.07883 6.29887 8.94191 6.17847 8.82151C5.86591 8.50895 5.44199 8.33335 4.99996 8.33335C4.55793 8.33335 4.13401 8.50895 3.82145 8.82151C3.50889 9.13407 3.33329 9.55799 3.33329 10C3.33329 10.442 3.50889 10.866 3.82145 11.1785C4.13401 11.4911 4.55793 11.6667 4.99996 11.6667C5.44199 11.6667 5.86591 11.4911 6.17847 11.1785C6.29885 11.0582 6.39891 10.9213 6.47645 10.7732C6.48614 10.7491 6.49703 10.7252 6.50916 10.7017C6.51425 10.6918 6.51951 10.6821 6.52493 10.6725C6.61749 10.4626 6.66663 10.2339 6.66663 10C6.66663 9.76614 6.61747 9.53734 6.52488 9.32741C6.51947 9.31785 6.51423 9.30815 6.50916 9.29831C6.49705 9.2748 6.48617 9.25099 6.47649 9.22694ZM13.475 14.3276C13.3824 14.5375 13.3333 14.7662 13.3333 15C13.3333 15.442 13.5089 15.866 13.8214 16.1785C14.134 16.4911 14.5579 16.6667 15 16.6667C15.442 16.6667 15.8659 16.4911 16.1785 16.1785C16.491 15.866 16.6666 15.442 16.6666 15C16.6666 14.558 16.491 14.1341 16.1785 13.8215C15.8659 13.5089 15.442 13.3334 15 13.3334C14.5579 13.3334 14.134 13.5089 13.8214 13.8215C13.7011 13.9419 13.6011 14.0787 13.5235 14.2268C13.5138 14.2509 13.5029 14.2747 13.4908 14.2983C13.4857 14.3082 13.4804 14.318 13.475 14.3276Z" fill="white"/>
</svg>
