<svg width="12" height="14" viewBox="0 0 12 14" fill="none" xmlns="http://www.w3.org/2000/svg">
<path d="M3.50002 0.333374H1.83335C1.39133 0.333374 0.967403 0.508969 0.654842 0.821529C0.342282 1.13409 0.166687 1.55801 0.166687 2.00004V12C0.166687 12.4421 0.342282 12.866 0.654842 13.1786C0.967403 13.4911 1.39133 13.6667 1.83335 13.6667H3.50002C3.94205 13.6667 4.36597 13.4911 4.67853 13.1786C4.99109 12.866 5.16669 12.4421 5.16669 12V2.00004C5.16669 1.55801 4.99109 1.13409 4.67853 0.821529C4.36597 0.508969 3.94205 0.333374 3.50002 0.333374Z" fill="white"/>
<path d="M10.1667 0.333374H8.50002C8.05799 0.333374 7.63407 0.508969 7.32151 0.821529C7.00895 1.13409 6.83335 1.55801 6.83335 2.00004V12C6.83335 12.4421 7.00895 12.866 7.32151 13.1786C7.63407 13.4911 8.05799 13.6667 8.50002 13.6667H10.1667C10.6087 13.6667 11.0326 13.4911 11.3452 13.1786C11.6578 12.866 11.8334 12.4421 11.8334 12V2.00004C11.8334 1.55801 11.6578 1.13409 11.3452 0.821529C11.0326 0.508969 10.6087 0.333374 10.1667 0.333374Z" fill="white"/>
<path d="M3.50002 0.333374H1.83335C1.39133 0.333374 0.967403 0.508969 0.654842 0.821529C0.342282 1.13409 0.166687 1.55801 0.166687 2.00004V12C0.166687 12.4421 0.342282 12.866 0.654842 13.1786C0.967403 13.4911 1.39133 13.6667 1.83335 13.6667H3.50002C3.94205 13.6667 4.36597 13.4911 4.67853 13.1786C4.99109 12.866 5.16669 12.4421 5.16669 12V2.00004C5.16669 1.55801 4.99109 1.13409 4.67853 0.821529C4.36597 0.508969 3.94205 0.333374 3.50002 0.333374Z" stroke="white"/>
<path d="M10.1667 0.333374H8.50002C8.05799 0.333374 7.63407 0.508969 7.32151 0.821529C7.00895 1.13409 6.83335 1.55801 6.83335 2.00004V12C6.83335 12.4421 7.00895 12.866 7.32151 13.1786C7.63407 13.4911 8.05799 13.6667 8.50002 13.6667H10.1667C10.6087 13.6667 11.0326 13.4911 11.3452 13.1786C11.6578 12.866 11.8334 12.4421 11.8334 12V2.00004C11.8334 1.55801 11.6578 1.13409 11.3452 0.821529C11.0326 0.508969 10.6087 0.333374 10.1667 0.333374Z" stroke="white"/>
</svg>
