<svg width="16" height="18" viewBox="0 0 16 18" fill="none" xmlns="http://www.w3.org/2000/svg">
<path fill-rule="evenodd" clip-rule="evenodd" d="M11.5774 0.910704C11.9028 0.585267 12.4305 0.585267 12.7559 0.910704L15.2559 3.4107C15.5814 3.73614 15.5814 4.26378 15.2559 4.58922L12.7559 7.08921C12.4305 7.41465 11.9028 7.41465 11.5774 7.08921C11.252 6.76378 11.252 6.23614 11.5774 5.9107L12.6548 4.83329H3.83333C3.39131 4.83329 2.96738 5.00889 2.65482 5.32145C2.34226 5.63401 2.16667 6.05793 2.16667 6.49996V8.99996C2.16667 9.4602 1.79357 9.83329 1.33333 9.83329C0.873096 9.83329 0.5 9.4602 0.5 8.99996V6.49996C0.5 5.6159 0.85119 4.76806 1.47631 4.14294C2.10143 3.51782 2.94928 3.16663 3.83333 3.16663H12.6548L11.5774 2.08921C11.252 1.76378 11.252 1.23614 11.5774 0.910704ZM13.8333 11.5V8.99996C13.8333 8.53972 14.2064 8.16663 14.6667 8.16663C15.1269 8.16663 15.5 8.53972 15.5 8.99996V11.5C15.5 12.384 15.1488 13.2319 14.5237 13.857C13.8986 14.4821 13.0507 14.8333 12.1667 14.8333H3.34518L4.42259 15.9107C4.74803 16.2361 4.74803 16.7638 4.42259 17.0892C4.09715 17.4147 3.56951 17.4147 3.24408 17.0892L0.744078 14.5892C0.418641 14.2638 0.418641 13.7361 0.744078 13.4107L3.24408 10.9107C3.56951 10.5853 4.09715 10.5853 4.42259 10.9107C4.74803 11.2361 4.74803 11.7638 4.42259 12.0892L3.34518 13.1666H12.1667C12.6087 13.1666 13.0326 12.991 13.3452 12.6785C13.6577 12.3659 13.8333 11.942 13.8333 11.5Z" fill="white"/>
</svg>
