<svg width="18" height="16" viewBox="0 0 18 16" fill="none" xmlns="http://www.w3.org/2000/svg">
<path fill-rule="evenodd" clip-rule="evenodd" d="M13.4108 0.744078C13.7362 0.418641 14.2638 0.418641 14.5893 0.744078L17.0893 3.24408C17.4147 3.56951 17.4147 4.09715 17.0893 4.42259L14.5893 6.92259C14.2638 7.24803 13.7362 7.24803 13.4108 6.92259C13.0853 6.59715 13.0853 6.06951 13.4108 5.74408L14.4882 4.66667H12.3334C11.4493 4.66667 10.6015 5.01786 9.97633 5.64298C9.35121 6.2681 9.00002 7.11594 9.00002 8C9.00002 8.88406 9.35121 9.7319 9.97633 10.357C10.6015 10.9821 11.4493 11.3333 12.3334 11.3333H14.4882L13.4108 10.2559C13.0853 9.93049 13.0853 9.40285 13.4108 9.07741C13.7362 8.75197 14.2638 8.75197 14.5893 9.07741L17.0893 11.5774C17.4147 11.9028 17.4147 12.4305 17.0893 12.7559L14.5893 15.2559C14.2638 15.5814 13.7362 15.5814 13.4108 15.2559C13.0853 14.9305 13.0853 14.4028 13.4108 14.0774L14.4882 13H12.3334C11.0073 13 9.7355 12.4732 8.79782 11.5355C8.56049 11.2982 8.34949 11.0395 8.16669 10.7639C7.98388 11.0395 7.77288 11.2982 7.53555 11.5355C6.59787 12.4732 5.3261 13 4.00002 13H1.50002C1.03978 13 0.666687 12.6269 0.666687 12.1667C0.666687 11.7064 1.03978 11.3333 1.50002 11.3333H4.00002C4.88408 11.3333 5.73192 10.9821 6.35704 10.357C6.98216 9.7319 7.33335 8.88406 7.33335 8C7.33335 7.11594 6.98216 6.2681 6.35704 5.64298C5.73192 5.01786 4.88408 4.66667 4.00002 4.66667H1.50002C1.03978 4.66667 0.666687 4.29357 0.666687 3.83333C0.666687 3.3731 1.03978 3 1.50002 3H4.00002C5.3261 3 6.59787 3.52678 7.53555 4.46447C7.77288 4.70179 7.98388 4.96052 8.16669 5.23611C8.34949 4.96052 8.56049 4.70179 8.79782 4.46447C9.7355 3.52678 11.0073 3 12.3334 3H14.4882L13.4108 1.92259C13.0853 1.59715 13.0853 1.06951 13.4108 0.744078Z" fill="white"/>
</svg>
