<svg width="16" height="14" viewBox="0 0 16 14" fill="none" xmlns="http://www.w3.org/2000/svg">
<path d="M0.5 1.16671V12.8334C0.499957 12.98 0.538602 13.124 0.612035 13.251C0.685468 13.3779 0.791087 13.4832 0.91823 13.5562C1.04537 13.6293 1.18953 13.6674 1.33616 13.667C1.48279 13.6665 1.62669 13.6273 1.75333 13.5534L11.7533 7.72004C11.8792 7.64668 11.9837 7.54159 12.0563 7.41525C12.1289 7.28892 12.1671 7.14575 12.1671 7.00004C12.1671 6.85433 12.1289 6.71117 12.0563 6.58483C11.9837 6.4585 11.8792 6.35341 11.7533 6.28004L1.75333 0.44671C1.62669 0.37281 1.48279 0.333632 1.33616 0.333135C1.18953 0.332637 1.04537 0.370836 0.91823 0.443875C0.791087 0.516914 0.685468 0.622208 0.612035 0.749123C0.538602 0.876038 0.499957 1.02008 0.5 1.16671Z" fill="white"/>
<path d="M14.6667 0.333333C14.8708 0.33336 15.0678 0.408297 15.2203 0.543929C15.3728 0.679562 15.4703 0.866457 15.4942 1.06917L15.5 1.16667V12.8333C15.4998 13.0457 15.4184 13.25 15.2726 13.4045C15.1268 13.5589 14.9275 13.6519 14.7155 13.6643C14.5035 13.6768 14.2947 13.6078 14.1318 13.4714C13.9689 13.3351 13.8643 13.1417 13.8392 12.9308L13.8333 12.8333V1.16667C13.8333 0.945653 13.9211 0.733691 14.0774 0.577411C14.2337 0.421131 14.4457 0.333333 14.6667 0.333333Z" fill="white"/>
<path d="M0.5 1.16671V12.8334C0.499957 12.98 0.538602 13.124 0.612035 13.251C0.685468 13.3779 0.791087 13.4832 0.91823 13.5562C1.04537 13.6293 1.18953 13.6674 1.33616 13.667C1.48279 13.6665 1.62669 13.6273 1.75333 13.5534L11.7533 7.72004C11.8792 7.64668 11.9837 7.54159 12.0563 7.41525C12.1289 7.28892 12.1671 7.14575 12.1671 7.00004C12.1671 6.85433 12.1289 6.71117 12.0563 6.58483C11.9837 6.4585 11.8792 6.35341 11.7533 6.28004L1.75333 0.44671C1.62669 0.37281 1.48279 0.333632 1.33616 0.333135C1.18953 0.332637 1.04537 0.370836 0.91823 0.443875C0.791087 0.516914 0.685468 0.622208 0.612035 0.749123C0.538602 0.876038 0.499957 1.02008 0.5 1.16671Z" stroke="white"/>
<path d="M14.6667 0.333333C14.8708 0.33336 15.0678 0.408297 15.2203 0.543929C15.3728 0.679562 15.4703 0.866457 15.4942 1.06917L15.5 1.16667V12.8333C15.4998 13.0457 15.4184 13.25 15.2726 13.4045C15.1268 13.5589 14.9275 13.6519 14.7155 13.6643C14.5035 13.6768 14.2947 13.6078 14.1318 13.4714C13.9689 13.3351 13.8643 13.1417 13.8392 12.9308L13.8333 12.8333V1.16667C13.8333 0.945653 13.9211 0.733691 14.0774 0.577411C14.2337 0.421131 14.4457 0.333333 14.6667 0.333333Z" stroke="white"/>
</svg>
