<svg width="16" height="14" viewBox="0 0 16 14" fill="none" xmlns="http://www.w3.org/2000/svg">
<path d="M14.2467 0.44671L4.24668 6.28004C4.12079 6.35341 4.01633 6.4585 3.94373 6.58483C3.87113 6.71117 3.83293 6.85433 3.83293 7.00004C3.83293 7.14575 3.87113 7.28892 3.94373 7.41525C4.01633 7.54159 4.12079 7.64668 4.24668 7.72004L14.2467 13.5534C14.3733 13.6273 14.5172 13.6665 14.6639 13.667C14.8105 13.6674 14.9546 13.6293 15.0818 13.5562C15.2089 13.4832 15.3145 13.3779 15.388 13.251C15.4614 13.124 15.5001 12.98 15.5 12.8334V1.16671C15.5001 1.02008 15.4614 0.876038 15.388 0.749123C15.3145 0.622208 15.2089 0.516914 15.0818 0.443875C14.9546 0.370836 14.8105 0.332637 14.6639 0.333135C14.5172 0.333632 14.3733 0.37281 14.2467 0.44671Z" fill="white"/>
<path d="M1.33333 0.333333C1.53744 0.33336 1.73445 0.408297 1.88698 0.543929C2.03951 0.679562 2.13695 0.866457 2.16083 1.06917L2.16667 1.16667V12.8333C2.16643 13.0457 2.0851 13.25 1.93929 13.4045C1.79349 13.5589 1.59421 13.6519 1.38217 13.6643C1.17014 13.6768 0.96135 13.6078 0.798473 13.4714C0.635595 13.3351 0.53092 13.1417 0.505833 12.9308L0.5 12.8333V1.16667C0.5 0.945653 0.587797 0.733691 0.744078 0.577411C0.900358 0.421131 1.11232 0.333333 1.33333 0.333333Z" fill="white"/>
<path d="M14.2467 0.44671L4.24668 6.28004C4.12079 6.35341 4.01633 6.4585 3.94373 6.58483C3.87113 6.71117 3.83293 6.85433 3.83293 7.00004C3.83293 7.14575 3.87113 7.28892 3.94373 7.41525C4.01633 7.54159 4.12079 7.64668 4.24668 7.72004L14.2467 13.5534C14.3733 13.6273 14.5172 13.6665 14.6639 13.667C14.8105 13.6674 14.9546 13.6293 15.0818 13.5562C15.2089 13.4832 15.3145 13.3779 15.388 13.251C15.4614 13.124 15.5001 12.98 15.5 12.8334V1.16671C15.5001 1.02008 15.4614 0.876038 15.388 0.749123C15.3145 0.622208 15.2089 0.516914 15.0818 0.443875C14.9546 0.370836 14.8105 0.332637 14.6639 0.333135C14.5172 0.333632 14.3733 0.37281 14.2467 0.44671Z" stroke="white"/>
<path d="M1.33333 0.333333C1.53744 0.33336 1.73445 0.408297 1.88698 0.543929C2.03951 0.679562 2.13695 0.866457 2.16083 1.06917L2.16667 1.16667V12.8333C2.16643 13.0457 2.0851 13.25 1.93929 13.4045C1.79349 13.5589 1.59421 13.6519 1.38217 13.6643C1.17014 13.6768 0.96135 13.6078 0.798473 13.4714C0.635595 13.3351 0.53092 13.1417 0.505833 12.9308L0.5 12.8333V1.16667C0.5 0.945653 0.587797 0.733691 0.744078 0.577411C0.900358 0.421131 1.11232 0.333333 1.33333 0.333333Z" stroke="white"/>
</svg>
